<?xml version="1.0" encoding="UTF-8"?>
<svg width="26px" height="17px" viewBox="0 0 26 17" version="1.1" xmlns="http://www.w3.org/2000/svg" xmlns:xlink="http://www.w3.org/1999/xlink">
    <!-- Generator: Sketch 41.2 (35397) - http://www.bohemiancoding.com/sketch -->
    <title>behance</title>
    <desc>Created with Sketch.</desc>
    <defs></defs>
    <g id="Page-1" stroke="none" stroke-width="1" fill="none" fill-rule="evenodd">
        <g id="Design-5-latest" transform="translate(-705.000000, -1575.000000)" fill="#FFFFFF">
            <g id="About" transform="translate(-1.000000, 1170.000000)">
                <g id="Social" transform="translate(659.000000, 402.000000)">
                    <g id="behance" transform="translate(47.000000, 3.000000)">
                        <g id="Layer_1">
                            <g id="Group">
                                <path d="M10.990183,6.78051576 C11.4396601,6.08054292 11.6963181,5.24546076 11.6814771,4.35013481 C11.6417124,1.95426794 9.64883224,0.0503259557 7.25377342,0.0503259557 L0.56712854,0.0503259557 C0.253938998,0.0503259557 0,0.304392689 0,0.617739772 L0,15.3298642 C0,15.6432113 0.253938998,15.897278 0.56712854,15.897278 L8.03637908,15.897278 C10.8086362,15.897278 13.1050763,13.6742082 13.1164052,10.9005567 C13.1233725,9.20069551 12.2808366,7.69363716 10.990183,6.78051576 Z M2.93346841,2.98526995 L7.31087146,2.98526995 C8.10361656,2.98526995 8.74863181,3.63055298 8.74863181,4.42375352 C8.74863181,5.21689738 8.1036732,5.86223709 7.31087146,5.86223709 L2.93346841,5.86223709 L2.93346841,2.98526995 Z M8.1015207,12.962334 L2.93346841,12.962334 L2.93346841,8.79718109 L7.31087146,8.79718109 L8.10146405,8.79718109 C9.24920261,8.79718109 10.1829935,9.73144165 10.1829935,10.8797575 C10.1829935,12.0280734 9.24925926,12.962334 8.1015207,12.962334 Z" id="Shape"></path>
                                <path d="M25.9684488,9.85725654 C25.9684488,6.43152113 23.2697734,3.64455131 19.9525926,3.64455131 C16.6354118,3.64455131 13.9367364,6.4315778 13.9367364,9.85725654 C13.9367364,13.2829353 16.6354684,16.0700184 19.9525926,16.0700184 C21.9654118,16.0700184 23.8357124,15.0376563 24.955695,13.3083816 C25.0953246,13.0927961 25.2221525,12.8675195 25.3347059,12.6353286 C25.4163878,12.466782 25.2924488,12.2706355 25.1051808,12.2701821 L22.1479782,12.2628146 C22.0825534,12.2626445 22.0205272,12.2893944 21.9736253,12.3350164 C21.41522,12.8782307 20.73061,13.1350178 19.9525926,13.1350178 C18.4829412,13.1350178 17.2509717,12.035271 16.9442963,10.5691875 L25.3797386,10.5691875 C25.7048802,10.5691875 25.9684488,10.3054863 25.9684488,9.98018109 L25.9684488,9.85725654 Z M19.9525926,6.57949531 C21.0289586,6.57949531 21.9776471,7.16963514 22.5291416,8.06122066 L17.3761002,8.06122066 C17.9275381,7.16963514 18.8762832,6.57949531 19.9525926,6.57949531 Z" id="Shape"></path>
                                <path d="M22.4523312,2.91527834 L17.1165534,2.91527834 C16.8675991,2.91527834 16.6657734,2.71335111 16.6657734,2.46427163 L16.6657734,1.12502314 C16.6657734,0.875943662 16.8675991,0.674016432 17.1165534,0.674016432 L22.4523312,0.674016432 C22.7012854,0.674016432 22.9031111,0.875943662 22.9031111,1.12502314 L22.9031111,2.46427163 C22.9031111,2.71340778 22.7012854,2.91527834 22.4523312,2.91527834 Z" id="Shape"></path>
                            </g>
                        </g>
                    </g>
                </g>
            </g>
        </g>
    </g>
</svg>