<?xml version="1.0" encoding="UTF-8"?>
<svg width="22px" height="22px" viewBox="0 0 22 22" version="1.1" xmlns="http://www.w3.org/2000/svg" xmlns:xlink="http://www.w3.org/1999/xlink">
    <!-- Generator: Sketch 41.2 (35397) - http://www.bohemiancoding.com/sketch -->
    <title>dribbble</title>
    <desc>Created with Sketch.</desc>
    <defs></defs>
    <g id="Page-1" stroke="none" stroke-width="1" fill="none" fill-rule="evenodd">
        <g id="Design-5-latest" transform="translate(-658.000000, -1572.000000)" fill="#FFFFFF">
            <g id="About" transform="translate(-1.000000, 1170.000000)">
                <g id="Social" transform="translate(659.000000, 402.000000)">
                    <g id="dribbble">
                        <g id="Layer_1">
                            <path d="M10.9813052,0 C4.91648357,0 0,4.91648357 0,10.9813052 C0,17.0461268 4.91648357,21.9626103 10.9813052,21.9626103 C17.0461268,21.9626103 21.9626103,17.0461268 21.9626103,10.9813052 C21.9626103,4.91648357 17.0460751,0 10.9813052,0 Z M19.8619202,10.1916291 C18.6962817,10.1447887 16.4906526,10.1436009 13.9843052,10.5818451 C13.7579014,10.0390235 13.5266432,9.51846009 13.2942488,9.02175587 C13.4394178,8.954 13.5833991,8.88510798 13.7246432,8.81394366 C15.4461174,7.94638967 16.8757042,6.82407981 17.9898545,5.46932394 C19.0640329,6.82960563 19.7108638,8.45910329 19.8619202,10.1916291 Z M16.5236526,3.99702817 C15.4837136,5.3217277 14.0975587,6.38526761 12.3755164,7.18015962 C12.1818028,6.81514554 11.9908779,6.46794836 11.8055822,6.14202817 C10.857723,4.47503756 9.95329577,3.14832394 9.27671831,2.22793897 C9.83255399,2.12093427 10.4026432,2.0657277 10.9813052,2.0657277 C13.0194554,2.0657277 14.9528216,2.74555869 16.5236526,3.99702817 Z M4.67701408,4.67701408 C5.42083099,3.93319718 6.27304695,3.33728638 7.19792488,2.90338028 C7.84723474,3.74661033 8.91661033,5.23419249 10.037061,7.21104225 C10.1651362,7.43703286 10.2962066,7.67438498 10.4288779,7.9203615 C9.56793427,8.18653052 8.64346948,8.40079812 7.65532864,8.56171831 C5.43849296,8.92270423 3.44062441,8.91175587 2.31857277,8.86042254 C2.70006103,7.28990141 3.50507512,5.84900469 4.67701408,4.67701408 Z M2.0657277,10.9813052 C2.0657277,10.9601831 2.06634742,10.9391127 2.06650235,10.9180423 C2.44747418,10.938338 2.93235211,10.9549671 3.49758685,10.9549671 C4.69178404,10.9549671 6.24484977,10.8806009 7.93409859,10.6092676 C9.15267136,10.4134883 10.3011643,10.1371972 11.3701268,9.78338967 C11.5590892,10.1837277 11.7474836,10.6009531 11.9331408,11.0338779 C10.5638732,11.4021972 9.30677465,11.8840282 8.17930047,12.4744131 C6.34984038,13.4323944 4.85962441,14.6771502 3.73767606,16.1815681 C2.65198122,14.6760657 2.0657277,12.8738732 2.0657277,10.9813052 Z M5.16375117,17.7380423 C6.73251643,15.4404883 9.26148357,13.8399108 12.6985962,12.9666244 C13.3879296,14.8620329 13.9777465,16.9815211 14.3178169,19.2535634 C13.2714742,19.6754366 12.1434836,19.8968826 10.9813052,19.8968826 C8.82261972,19.8968826 6.78100939,19.1348357 5.16375117,17.7380423 Z M17.2855446,17.2855446 C16.9564742,17.614615 16.6059718,17.9143005 16.2376009,18.1843427 C15.8848779,16.1660235 15.3543474,14.2731972 14.7433568,12.5498122 C16.9088075,12.2102066 18.8140282,12.2186761 19.8061972,12.2583897 C19.5357934,14.1552441 18.6645728,15.9065681 17.2855446,17.2855446 Z" id="Shape"></path>
                        </g>
                    </g>
                </g>
            </g>
        </g>
    </g>
</svg>