<?xml version="1.0" encoding="UTF-8"?>
<svg width="28px" height="22px" viewBox="0 0 28 22" version="1.1" xmlns="http://www.w3.org/2000/svg" xmlns:xlink="http://www.w3.org/1999/xlink">
    <!-- Generator: Sketch 41.2 (35397) - http://www.bohemiancoding.com/sketch -->
    <title>twitter</title>
    <desc>Created with Sketch.</desc>
    <defs></defs>
    <g id="Page-1" stroke="none" stroke-width="1" fill="none" fill-rule="evenodd">
        <g id="Design-5-latest" transform="translate(-808.000000, -1572.000000)" fill="#FFFFFF">
            <g id="About" transform="translate(-1.000000, 1170.000000)">
                <g id="Social" transform="translate(659.000000, 402.000000)">
                    <g id="twitter" transform="translate(150.000000, 0.000000)">
                        <g id="Layer_1">
                            <g id="Group">
                                <path d="M27.5904845,2.58698219 C26.5757907,3.02757534 25.4839145,3.32376164 24.3386167,3.45807123 C25.5087915,2.77370137 26.4059575,1.69249315 26.8283877,0.401326027 C25.7338006,1.03601096 24.5229615,1.49567671 23.2323884,1.74217808 C22.2001532,0.669784932 20.7295409,0 19.1007366,0 C15.9766025,0 13.4418615,2.47030274 13.4418615,5.51967534 C13.4418615,5.95305616 13.4912966,6.37473699 13.5884125,6.77894795 C8.88474963,6.54847397 4.71243357,4.34951507 1.92222511,1.00972603 C1.43441305,1.82536027 1.1556633,2.7722589 1.1556633,3.78486986 C1.1556633,5.69918219 2.15441026,7.39167534 3.67302231,8.37960411 C2.74396279,8.35043425 1.87279009,8.1037726 1.10782295,7.68802192 L1.10782295,7.75806164 C1.10782295,10.4339959 3.05891174,12.6650096 5.64882861,13.1727575 C5.17409291,13.2982521 4.67463969,13.3668493 4.15780449,13.3668493 C3.79342052,13.3668493 3.43924249,13.3333521 3.09367572,13.2676397 C3.81367293,15.462111 5.90429606,17.0582795 8.38242599,17.1021945 C6.44441357,18.5845685 4.00391804,19.4659151 1.35164925,19.4659151 C0.894295538,19.4659151 0.444277348,19.4396301 0,19.388663 C2.50715308,20.9556616 5.48043059,21.8705055 8.67855773,21.8705055 C19.0905307,21.8705055 24.7843292,13.4545192 24.7843292,6.15900822 L24.7683824,5.44402603 C25.8715808,4.6676589 26.8312582,3.69591781 27.5904845,2.58698219 Z" id="Shape"></path>
                            </g>
                        </g>
                    </g>
                </g>
            </g>
        </g>
    </g>
</svg>